HIERARCHY
ROOT hip
{
  OFFSET 0 0 0
  CHANNELS 6 Xposition Yposition Zposition Zrotation Yrotation Xrotation
  JOINT abdomen
  {
    OFFSET 0 20.6881 -0.73152
    CHANNELS 3 Zrotation Xrotation Yrotation
    JOINT chest
    {
      OFFSET 0 11.7043 -0.48768
      CHANNELS 3 Zrotation Xrotation Yrotation
      JOINT neck
      {
        OFFSET 0 22.1894 -2.19456
        CHANNELS 3 Zrotation Xrotation Yrotation
        JOINT head
        {
          OFFSET -0.24384 7.07133 1.2192
          CHANNELS 3 Zrotation Xrotation Yrotation
          JOINT leftEye
          {
            OFFSET 4.14528 8.04674 8.04672
            CHANNELS 3 Zrotation Xrotation Yrotation
            End Site
            {
              OFFSET 1 0 0
            }
          }
          JOINT rightEye
          {
            OFFSET -3.6576 8.04674 8.04672
            CHANNELS 3 Zrotation Xrotation Yrotation
            End Site
            {
              OFFSET 1 0 0
            }
          }
        }
      }
      JOINT rCollar
      {
        OFFSET -2.68224 19.2634 -4.8768
        CHANNELS 3 Zrotation Xrotation Yrotation
        JOINT rShldr
        {
          OFFSET -8.77824 -1.95073 1.46304
          CHANNELS 3 Zrotation Xrotation Yrotation
          JOINT rForeArm
          {
            OFFSET -28.1742 -1.7115 0.48768
            CHANNELS 3 Zrotation Xrotation Yrotation
            JOINT rHand
            {
              OFFSET -22.5879 0.773209 7.07136
              CHANNELS 3 Zrotation Xrotation Yrotation
              JOINT rThumb1
              {
                OFFSET -1.2192 -0.487915 3.41376
                CHANNELS 3 Zrotation Xrotation Yrotation
                JOINT rThumb2
                {
                  OFFSET -3.37035 -0.52449 3.41376
                  CHANNELS 3 Zrotation Xrotation Yrotation
                  End Site
                  {
                    OFFSET -1.78271 -1.18214 1.43049
                  }
                }
              }
              JOINT rIndex1
              {
                OFFSET -7.75947 0.938293 5.60832
                CHANNELS 3 Zrotation Xrotation Yrotation
                JOINT rIndex2
                {
                  OFFSET -2.54057 -0.884171 1.56538
                  CHANNELS 3 Zrotation Xrotation Yrotation
                  End Site
                  {
                    OFFSET -1.62519 -0.234802 1.16502
                  }
                }
              }
              JOINT rMid1
              {
                OFFSET -8.24714 1.18213 3.41376
                CHANNELS 3 Zrotation Xrotation Yrotation
                JOINT rMid2
                {
                  OFFSET -3.10165 -0.590103 1.0647
                  CHANNELS 3 Zrotation Xrotation Yrotation
                  End Site
                  {
                    OFFSET -2.48547 -0.328903 0.83742
                  }
                }
              }
              JOINT rRing1
              {
                OFFSET -8.82822 0.546677 1.51678
                CHANNELS 3 Zrotation Xrotation Yrotation
                JOINT rRing2
                {
                  OFFSET -2.60934 -0.819778 -0.0198488
                  CHANNELS 3 Zrotation Xrotation Yrotation
                  End Site
                  {
                    OFFSET -2.33842 -0.294052 0.168128
                  }
                }
              }
              JOINT rPinky1
              {
                OFFSET -8.27202 -0.0477905 -0.4584
                CHANNELS 3 Zrotation Xrotation Yrotation
                JOINT rPinky2
                {
                  OFFSET -1.82734 -0.647385 -0.700984
                  CHANNELS 3 Zrotation Xrotation Yrotation
                  End Site
                  {
                    OFFSET -1.69225 -0.51767 -0.607171
                  }
                }
              }
            }
          }
        }
      }
      JOINT lCollar
      {
        OFFSET 2.68224 19.2634 -4.8768
        CHANNELS 3 Zrotation Xrotation Yrotation
        JOINT lShldr
        {
          OFFSET 8.77824 -1.95073 1.46304
          CHANNELS 3 Zrotation Xrotation Yrotation
          JOINT lForeArm
          {
            OFFSET 28.1742 -1.7115 0.48768
            CHANNELS 3 Zrotation Xrotation Yrotation
            JOINT lHand
            {
              OFFSET 22.5879 0.773209 7.07136
              CHANNELS 3 Zrotation Xrotation Yrotation
              JOINT lThumb1
              {
                OFFSET 1.2192 -0.487915 3.41376
                CHANNELS 3 Zrotation Xrotation Yrotation
                JOINT lThumb2
                {
                  OFFSET 3.37035 -0.52449 3.41376
                  CHANNELS 3 Zrotation Xrotation Yrotation
                  End Site
                  {
                    OFFSET 1.78271 -1.18214 1.43049
                  }
                }
              }
              JOINT lIndex1
              {
                OFFSET 7.75947 0.938293 5.60832
                CHANNELS 3 Zrotation Xrotation Yrotation
                JOINT lIndex2
                {
                  OFFSET 2.54057 -0.884171 1.56538
                  CHANNELS 3 Zrotation Xrotation Yrotation
                  End Site
                  {
                    OFFSET 1.62519 -0.234802 1.16502
                  }
                }
              }
              JOINT lMid1
              {
                OFFSET 8.24714 1.18213 3.41376
                CHANNELS 3 Zrotation Xrotation Yrotation
                JOINT lMid2
                {
                  OFFSET 3.10165 -0.590103 1.0647
                  CHANNELS 3 Zrotation Xrotation Yrotation
                  End Site
                  {
                    OFFSET 2.48547 -0.328903 0.83742
                  }
                }
              }
              JOINT lRing1
              {
                OFFSET 8.82822 0.546677 1.51678
                CHANNELS 3 Zrotation Xrotation Yrotation
                JOINT lRing2
                {
                  OFFSET 2.60934 -0.819778 -0.0198488
                  CHANNELS 3 Zrotation Xrotation Yrotation
                  End Site
                  {
                    OFFSET 2.33842 -0.294052 0.168128
                  }
                }
              }
              JOINT lPinky1
              {
                OFFSET 8.27202 -0.0477905 -0.4584
                CHANNELS 3 Zrotation Xrotation Yrotation
                JOINT lPinky2
                {
                  OFFSET 1.82734 -0.647385 -0.700984
                  CHANNELS 3 Zrotation Xrotation Yrotation
                  End Site
                  {
                    OFFSET 1.69225 -0.51767 -0.607171
                  }
                }
              }
            }
          }
        }
      }
    }
  }
  JOINT rButtock
  {
    OFFSET -8.77824 4.35084 1.2192
    CHANNELS 3 Zrotation Xrotation Yrotation
    JOINT rThigh
    {
      OFFSET 0 -1.70687 -2.19456
      CHANNELS 3 Zrotation Xrotation Yrotation
      JOINT rShin
      {
        OFFSET 0 -36.8199 0.73152
        CHANNELS 3 Zrotation Xrotation Yrotation
        JOINT rFoot
        {
          OFFSET 0.73152 -45.1104 -5.12064
          CHANNELS 3 Zrotation Xrotation Yrotation
          End Site
          {
            OFFSET -1.1221 -3.69964 12.103
          }
        }
      }
    }
  }
  JOINT lButtock
  {
    OFFSET 8.77824 4.35084 1.2192
    CHANNELS 3 Zrotation Xrotation Yrotation
    JOINT lThigh
    {
      OFFSET 0 -1.70687 -2.19456
      CHANNELS 3 Zrotation Xrotation Yrotation
      JOINT lShin
      {
        OFFSET 0 -36.8199 0.73152
        CHANNELS 3 Zrotation Xrotation Yrotation
        JOINT lFoot
        {
          OFFSET -0.73152 -45.1104 -5.12064
          CHANNELS 3 Zrotation Xrotation Yrotation
          End Site
          {
            OFFSET 1.1221 -3.69964 12.103
          }
        }
      }
    }
  }
}
MOTION
Frames:	6
Frame Time:	0.03333
-38.1421 71.5408 -13.092799999999999 -6.297565 4.121863 -0.322895 -3.146139 6.259686 26.753191 5.978287 -11.544635 -23.232725 -5.831218 13.290761 -112.718026 15.201206 16.052953 119.264407 -3.424776 -0.262577 8.765966 -10.548616 0.027244 -0.295119 -152.151421 23.635777 157.865898 61.027618 -48.638302 87.715272 67.36527 68.010677 -140.461911 179.964897 5.569232 144.783235 -171.024668 -11.348974 79.546172 33.262853 -47.960994 42.982077 -170.629804 -71.634541 116.379689 155.035087 -64.219747 83.048432 -160.98316 33.210541 132.688891 -155.958016 42.763237 112.903381 -5.811572 -10.507558 -1.965293 -144.508944 66.045923 -178.844333 -172.840503 -13.874704 -131.678182 -163.464947 -30.173182 -131.379275 143.526437 27.015443 -150.022566 -38.579494 -72.750828 -71.670271 -2.249652 88.149532 85.678557 -174.909649 -17.184291 -140.208752 -170.116916 -24.269896 -80.738472 165.464709 17.879845 -65.596507 -73.193238 -70.332033 -17.57687 171.135952 -19.65046 -104.949272 28.100468 52.736846 -31.905948 164.352016 -2.445411 -155.1743 147.016243 -1.969652 -176.253872 9.669409 0.403581 5.8114 -12.799283 -50.501945 -36.544504 164.056063 -14.500606 79.36553 179.903364 76.335071 -0.0 -170.240425 59.209316 -180.0 -17.197197 -44.678159 70.873341 153.714414 12.152709 -55.259415 31.897685 0.219932 14.822694 -18.580118 -48.398315 -180.0 21.593093 -54.72257 -166.023071 141.232294 -31.125838 -41.945697
-37.4828 70.5596 -13.282399999999999 -6.518711 6.459713 -1.265182 -0.529468 3.055072 -170.163011 -7.460403 5.431891 173.042393 -5.752049 13.335771 -112.672071 15.001421 15.175848 119.1368 -20.094989 -3.412342 19.086205 -12.132678 -0.214454 2.017705 -11.437101 42.745467 11.170225 55.6669 11.483423 21.732588 -68.701911 33.215682 3.688974 110.501568 -69.32224 93.850261 -93.727193 29.346522 53.063025 -1.724465 2.253545 32.198786 34.05098 -39.816016 -10.33973 34.340607 -24.336398 6.715935 -8.32429 -31.857572 -7.228552 -70.485446 68.075487 89.488788 -74.957599 74.182558 86.395443 10.115279 0.827085 16.051361 -27.660181 57.100383 13.366374 29.774728 -46.972968 6.751419 138.343017 36.556072 -144.548488 -107.328078 -52.999575 -130.05351 47.784283 -15.374687 -24.365418 -7.681472 -34.859032 2.424257 164.738631 -8.39281 -81.76668 154.778632 -2.751283 -43.68841 -13.23909 -8.267931 0.018761 166.976865 -17.710702 -115.657834 172.206102 -68.503733 -139.401697 -40.516166 -40.268532 -18.708015 72.080244 69.543266 -89.159798 -26.935017 -60.727078 -15.086854 164.28098 -52.406958 169.727546 -171.362496 25.686306 177.047403 -178.674672 74.587834 -1.374747 -168.90489 56.442999 -146.228666 -42.818523 -27.766648 11.665331 20.901836 15.099919 84.740959 4.347009 -0.262673 -5.58872 35.188035 -47.169438 -82.049864 -69.916772 -30.082145 -176.101507 -147.269966 -22.600891 75.967789
-36.931599999999996 69.3337 -13.6785 -7.509788 9.494749 -1.631921 -0.391751 7.859264 27.904021 4.61536 -11.212198 -23.847091 8.375725 -0.50391 55.521244 -7.867385 3.352435 -49.886326 -29.736718 -7.107523 26.332408 -13.344762 -0.336097 2.872417 -150.945406 -65.479007 -175.970347 146.311577 19.132235 -153.469257 -62.547686 11.713803 8.079849 46.967558 -63.366049 32.939645 -5.241712 4.46066 7.20861 -79.381971 39.542952 72.085374 -99.85379 34.91301 96.111945 -171.057848 -35.445519 123.021076 -162.300963 26.745083 139.32307 -4.082033 -53.706662 -4.124589 -150.951109 -2.834719 -177.615227 -8.195986 56.22295 2.526498 -34.529551 45.763979 11.332664 41.189734 -27.767349 12.794039 166.58474 -74.527008 -164.500936 -98.561664 53.717031 95.517152 -89.061615 -13.016138 -66.082328 127.459741 65.581474 -102.249173 161.332629 -13.007234 -80.027525 153.287871 -10.844426 -40.231615 42.013025 38.207882 -39.427053 -3.255952 11.185759 -1.652824 -16.303835 2.502635 3.273689 173.44515 20.822024 -131.725847 69.015703 71.910012 -84.482675 163.91821 -3.209257 -162.864715 79.005682 55.056505 -114.547322 80.677702 68.105425 -168.304801 -1.143508 2.904964 -1.205916 8.805121 -19.494413 58.415846 38.696951 12.66811 -98.341478 116.198397 -12.620368 -1.897472 3.302665 0.557608 -4.286902 34.999694 -49.901932 0.0 -78.481962 37.620169 -19.046534 14.138932 -21.367254 115.330837
-36.4216 68.29429999999999 -14.365900000000002 -8.065127 11.823479 -1.89066 0.46255 6.913042 65.187493 -1.953407 -10.714049 -60.741631 -9.515311 8.11939 -90.978173 12.328319 9.346608 92.756358 -40.228141 -12.774635 33.993464 -15.61125 -0.278669 2.03264 -6.93026 35.89526 6.092162 5.094491 62.613851 64.014301 -16.446283 48.48999 -65.619792 164.710672 -26.536048 138.97893 -8.065899 10.287637 6.006643 18.318715 -43.2007 -28.347215 -153.187909 -46.64804 125.216598 112.112382 -65.704385 44.168132 -86.597907 62.417811 72.642266 -7.77703 -1.808351 6.374612 -150.209862 6.40282 177.352601 -166.138436 -25.5319 179.177349 156.470073 42.407283 -152.921634 -64.534419 42.781131 79.676877 158.710682 -31.062601 -160.596099 -152.478415 -3.947083 162.737663 43.393432 -15.326194 -35.547726 -4.845444 -31.147035 2.860722 157.109499 -15.633327 -78.934306 -39.823787 -33.070871 -60.122675 42.907539 35.794257 -38.486377 -98.231005 -53.737373 -42.574124 139.871286 6.58413 -146.160684 143.37343 0.078496 -161.309298 70.526265 74.496411 -85.935753 10.922032 28.083788 -11.302264 -1.144599 -47.965699 -17.277755 11.348642 21.267867 25.534082 -0.048708 3.81095 0.732804 9.180993 -21.334566 3.536254 28.891876 38.863036 65.941475 -74.697962 -44.819741 -155.115872 -141.696577 72.877334 -24.84288 -173.286466 17.235771 -180.0 82.127585 -71.658659 -108.563136 -83.139125 -36.233857 14.18149
-35.963699999999996 67.20859999999999 -15.254599999999998 -8.455174 14.279601 -2.161576 2.17934 6.29234 68.832858 -2.283068 -9.252968 -64.141453 -11.35765 7.116793 -85.016895 11.669153 8.685782 85.911247 -50.406935 -18.626457 38.421669 -19.712455 -0.074694 0.429914 -1.665414 15.749088 -0.321006 -116.164343 -67.640253 171.765602 130.488595 -79.484786 45.636603 172.14996 -3.648641 141.383609 0.551629 6.763984 0.708366 -132.919189 -28.733467 122.559973 -50.104486 45.32801 50.998319 -62.796402 64.717764 36.352628 -0.721793 -0.091942 1.553567 89.355216 -72.552573 60.167169 -142.887401 24.061202 167.306265 7.969857 26.5638 0.933925 150.890283 50.37116 -157.676325 -14.158923 -15.044745 53.029519 -48.763807 -85.171859 -24.418796 101.901808 -38.288382 110.419949 165.397459 -14.143013 119.890206 7.004093 2.813792 3.264038 66.555044 27.65464 -55.019259 110.114481 -75.659204 -144.760528 14.406215 16.805239 -16.97676 156.899878 -32.466278 -102.18614 -12.465635 27.117759 2.095587 -176.582659 23.064661 -133.09167 1.957305 3.665726 -0.067217 143.626124 14.975668 -156.259228 -2.442657 -6.928046 -21.745267 10.581203 -11.623496 26.117878 -4.523222 4.216181 -2.350491 16.814549 -23.637222 -75.604507 -38.148041 19.382383 84.637416 115.335929 -50.070386 18.226781 -5.670044 0.702762 -2.845649 47.038425 -51.072818 -157.728156 114.352373 -56.947292 -141.061028 112.223268 61.227039 -35.501433
-35.6055 66.3541 -16.275100000000002 -8.582031 16.639033 -2.441241 3.452193 3.319681 113.836657 -5.020809 -5.26392 -109.18617 -11.614538 11.33331 -106.964223 12.015245 12.717393 107.561148 -53.343937 -24.706332 47.112398 -23.232495 0.420993 -2.047759 -2.239809 21.200287 2.303396 58.903924 32.352543 16.194086 128.110101 21.44386 141.456794 -170.986768 46.024339 138.057532 -6.247366 17.742252 0.468744 28.108559 -41.904104 -11.541583 5.197748 13.532799 3.557211 -169.514706 8.205 114.572746 -162.443204 -20.565604 140.987808 -177.362064 -46.694872 139.699252 -136.790112 14.68109 167.280098 -46.512922 -81.44594 -80.040323 -58.083991 48.048049 21.864606 -26.268213 57.055302 122.593984 128.880454 45.204395 -134.949718 -78.718935 -40.57677 -101.854437 19.066956 -43.203907 -42.141629 5.580951 -2.342686 3.363902 155.700549 -22.606865 -78.799502 -17.050056 -22.350776 -41.854152 32.648398 24.933583 -30.835345 -177.65564 -44.792627 -77.132821 137.1711 13.007228 -152.098028 41.992945 -67.227903 87.882333 1.152343 -4.542776 -0.495124 121.187448 52.615266 -138.552506 24.616021 73.913586 -69.778424 -28.774172 59.499759 1.562277 176.554579 71.831647 3.625737 -166.199224 49.124913 -10.34209 16.866502 48.956806 -113.767093 19.35108 -6.720711 74.975535 -0.070047 0.459425 8.669042 32.302136 -51.795562 -43.015798 -121.382932 13.574121 -85.01229 108.798237 21.459379 167.574126
